<?xml version="1.0" encoding="UTF-8"?>
<svg version="1.1" viewBox="0 0 1024 1024" width="1280" height="1280" xmlns="http://www.w3.org/2000/svg">
<path transform="translate(0)" d="m0 0h1024v1024h-1024z" fill="#1F1E26"/>
<path transform="translate(510,317)" d="m0 0h5l18 13 17 12 36 26 17 12 14 10 18 13 17 12 2 3v113l-1 7h-1l-1-13-10-8-16-11-34-24-20-14-17-12-20-14-17-12-6-1-19 13-100 70-17 12-2 2-2 72 15-10 17-12 16-11 10-7h3l1 2 2-2 6 1 12 9 19 13 14 10-5 5-14 10-17 12-18 13-16 11-18 13-16 11-18 13-19 13-15 11-20 14-7 5-5 1-11-7-16-12-19-13-12-9-18-13-17-12-36-26-17-12-14-10-18-13-14-10-2-3v-131l8-7 23-16 19-13 15-11 16-11 34-24 18-13 19-13 13-10 16-11 7-5h6l9 6 17 12 19 14 19 13 8 6v5l-18 13-14 10-20 14h-3l-12-8-4-3-1 45-5 5-15 11-16 11-20 14-17 12-23 16-2 4 19 14 17 12 18 13 19 13 15 11 9 7 1 2 1 59 10-8 15-10 10-7 19-13 1-3 1-182 12-9 63-44 17-12 43-30z" fill="#FD6623"/>
<path transform="translate(725,317)" d="m0 0 6 1 19 13 18 13 34 24 18 13 13 9 51 36 18 13 14 10 3 4v130l-6 7-16 11-19 14-18 13-14 10-90 65-14 10-13 9-4 1-1-5v-28l1-99 6-7 34-24 36-26 14-10 10-7-7-6-19-13-40-28-32-22-2-3v-46l-17 12-5-2-23-16-18-13-8-6-1-5 13-10 19-13 12-9 18-13z" fill="#904232"/>
<path transform="translate(403,685)" d="m0 0 5 1 18 13 16 11 40 28 18 13 10 7 2 3 5-5 15-11 20-14 51-36 13-9 7 1 15 11 9 7 3 3v88l-9 8-17 12-18 13-17 12-54 39-14 10-8 5-7-3-18-13-19-13-16-12-16-11-18-13-19-13-15-11-9-7-3-4v-86l3-5 16-11z" fill="#35353E"/>
<path transform="translate(510,317)" d="m0 0h5l18 13 17 12 36 26 17 12 14 10 18 13 17 12 2 3v113l-1 7h-1l-1-13-10-8-16-11-34-24-20-14-17-12-20-14-17-12-6-1-19 13-100 70-17 12-2 2-1 41v32l-14 10-4 2 1-185 12-9 63-44 17-12 43-30z" fill="#B1B0B1"/>
<path transform="translate(508,129)" d="m0 0 7 1 13 10 19 13 16 12 19 13 15 11 18 13 20 14 12 9v4l-14 10-36 26-19 13-12 9-6 4-4-1-17-12-18-13-8-5-4 1-19 13-16 12-16 11-11 8-1 1-1 22-10 8-18 13-10 7-5 1-11-7-15-11-3-3v-109l9-8 20-14 14-10 17-12 18-13 17-12 36-26z" fill="#DE6215"/>
<path transform="translate(682,409)" d="m0 0 4 1 1 3 1 210 14 10 18 13 5 4v73l-5-2-20-14-18-13-19-13-16-12-13-9-17-12-18-13-17-12-16-11-13-9-22-15-23-16-15-10-23-16-24-16-17-12-1-4 17-13 18-13 10-7 7 1 17 12 32 22 18 13 32 22 14 9 2-4 13-10 13-9h1l1 41 17 12 10 7 2 1v-60l1-7 1-101 5-5 13-10z" fill="#35353F"/>
<path transform="translate(725,317)" d="m0 0 6 1 19 13 18 13 34 24 18 13 13 9 51 36 18 13 14 10 2 3-18 13-17 12-18 13-14 10-18 13-5 3-5-1-11-8-23-16-43-30-19-13-2-3v-46l-17 12-5-2-23-16-18-13-8-6-1-5 13-10 19-13 12-9 18-13z" fill="#FD6624"/>
<path transform="translate(616,686)" d="m0 0 7 1 15 11 9 7 3 3v88l-9 8-17 12-18 13-17 12-54 39-14 10-6 4h-2v-135l13-10 19-13 18-13 19-13 18-13z" fill="#FD6623"/>
<path transform="translate(469,346)" d="m0 0 3 1-1 6-8 10-1 15-1 47v17l-1 16 1 6-19 13-40 28-17 12-11 8-1 1-1 41v32l-14 10-4 2 1-185 12-9 63-44 17-12z" fill="#8F8F97"/>
<path transform="translate(508,609)" d="m0 0h7l19 13 16 12 34 24 6 5-1 5-12 9-16 11-18 13-19 13-10 7-3 1-34-24-18-13-19-13-6-5-1-3 9-8 14-10 17-12 18-13z" fill="#36353E"/>
<path transform="translate(473,481)" d="m0 0 7 1 17 12 32 22 18 13 16 11 9 6 5 13v39l-3 9-3 2-6 2-15-10-19-13-23-16-15-10-23-16-24-16-17-12-1-4 17-13 18-13z" fill="#434548"/>
<path transform="translate(375,225)" d="m0 0 5 5 12 9 20 14 36 26 16 12v2l-16 11-2 2-1 22-10 8-18 13-10 7-5 1-11-7-15-11-3-3v-109z" fill="#FC6623"/>
<path transform="translate(648,227)" d="m0 0 2 1v109l-8 7-14 10-5 3h-5l-19-14-17-12-4-5-1-20-11-9-7-5 5-5 13-9 18-13 34-24 15-11z" fill="#673533"/>
<path transform="translate(490,142)" d="m0 0 2 1-5 6-4 2v6 3h-2l-2 4-5 5-9 8h-2v2l-4 4 1 2h-2l1 11 2 1 1 7h-2v4h2l-1 5-1 3v38l-1 3 3-1-2 20 7-2v5h5 4v3l2 1-13 9-9-6-16-12-17-12-18-13-14-10-12-9-3-4 2-4 18-13 16-11 18-13 17-12 18-13 17-12z" fill="#D44B17"/>
<path transform="translate(513,609)" d="m0 0 5 2 17 12 36 26 17 12 2 2-1 5-12 9-16 11-18 13-19 13-8 6h-3z" fill="#FC6623"/>
<path transform="translate(384,405)" d="m0 0 3 2-2 22-1 9-1 54-1 11v10l2 2v3l-10 7-1 1-1 41v32l-14 10-4 2 1-185 12-9z" fill="#7F808B"/>
<path transform="translate(724,318)" d="m0 0h1v81l-17 12-5-2-23-16-18-13-8-6-1-5 13-10 19-13 12-9 18-13z" fill="#904232"/>
<path transform="translate(298,319)" d="m0 0 5 2 36 26 17 12 11 8 3 2v5l-18 13-14 10-20 14h-3l-12-8-5-4z" fill="#904232"/>
<path transform="translate(401,537)" d="m0 0 5 2 8 5v2l5 2 10 7 2 3-12 8-17 12h-1z" fill="#8B4132"/>
<path transform="translate(621,537)" d="m0 0h1v40l-5-2-19-13-4-2 1-4 13-10z" fill="#8E4232"/>
<path transform="translate(526,471)" d="m0 0 5 1 13 10 16 11 17 12 2 5-2 3h-6l-19-13-11-8-17-12-1-1v-6z" fill="#F36322"/>
<path transform="translate(380,706)" d="m0 0 1 2h2l1 4v70l-1 10-2 3-4 1-3-2v-19l2 2 2-4h2v-8h-2l-1-8 1-16h2v-7h-2l-1-2-2 4-1-16 2-6 2-7z" fill="#434548"/>
<path transform="translate(526,471)" d="m0 0 5 1 13 10 2 2-4 2-8-1h-3l-8-6v-6z" fill="#DC5F19"/>
<path transform="translate(628,224)" d="m0 0h5l5 1 4 1 4-2 2 4-14 10-2-2-3-9z" fill="#FA6522"/>
<path transform="translate(602,565)" d="m0 0 5 2 8 6-2 2-5-1-7-5z" fill="#3D3E44"/>
<path transform="translate(376,704)" d="m0 0h2l-1 10-2 4h-2v-9z" fill="#363640"/>
<path transform="translate(553,489)" d="m0 0 7 4-4 4-5-2-1-4z" fill="#DE6018"/>
</svg>
